<svg width="40" height="41" viewBox="0 0 40 41" fill="none" xmlns="http://www.w3.org/2000/svg">
<g id="usdt" clip-path="url(#clip0_43_88)">
<g id="Group">
<path id="Vector" d="M20 40.5C31.0457 40.5 40 31.5457 40 20.5C40 9.4543 31.0457 0.5 20 0.5C8.9543 0.5 0 9.4543 0 20.5C0 31.5457 8.9543 40.5 20 40.5Z" fill="#26A17B"/>
<path id="Vector_2" fill-rule="evenodd" clip-rule="evenodd" d="M22.4025 22.2289V22.2264C22.265 22.2364 21.5562 22.2789 19.975 22.2789C18.7125 22.2789 17.8237 22.2414 17.5112 22.2264V22.2302C12.6512 22.0164 9.02375 21.1702 9.02375 20.1577C9.02375 19.1464 12.6512 18.3002 17.5112 18.0827V21.3877C17.8287 21.4102 18.7387 21.4639 19.9962 21.4639C21.505 21.4639 22.2613 21.4014 22.4025 21.3889V18.0852C27.2525 18.3014 30.8712 19.1477 30.8712 20.1577C30.8712 21.1702 27.2525 22.0139 22.4025 22.2289ZM22.4025 17.7414V14.7839H29.17V10.2739H10.7438V14.7839H17.5112V17.7402C12.0112 17.9927 7.875 19.0827 7.875 20.3877C7.875 21.6927 12.0112 22.7814 17.5112 23.0352V32.5127H22.4025V23.0327C27.8938 22.7802 32.02 21.6914 32.02 20.3877C32.02 19.0839 27.8938 17.9952 22.4025 17.7414Z" fill="white"/>
</g>
</g>
<defs>
<clipPath id="clip0_43_88">
<rect width="40" height="40" fill="white" transform="translate(0 0.5)"/>
</clipPath>
</defs>
</svg>
