<svg width="96" height="89" viewBox="0 0 96 89" fill="none" xmlns="http://www.w3.org/2000/svg">
<g id="Frame" clip-path="url(#clip0_17_16432)">
<g id="Group">
<g id="Group_2">
<g id="Group_3">
<g id="Group_4">
<g id="Group_5">
<path id="Vector" d="M66.4141 6.3964C66.4141 9.60769 63.8278 12.2108 60.6372 12.2108C57.4466 12.2108 54.8604 9.60769 54.8604 6.3964C54.8604 3.18511 57.4466 0.582031 60.6372 0.582031C63.8275 0.582031 66.4141 3.18511 66.4141 6.3964Z" fill="url(#paint0_radial_17_16432)"/>
<path id="Vector_2" d="M72.8115 24.5938C71.2036 17.4349 66.361 12.2344 60.6372 12.2344C54.8962 12.2344 50.042 17.4666 48.4487 24.6589C48.3306 25.192 48.1824 26.4475 48.9697 27.2103C50.3 28.6777 53.3984 31.3482 60.4263 31.2738C67.0873 31.2033 70.4431 28.861 72.0059 27.4086C73.102 26.5002 72.9358 25.148 72.8115 24.5938Z" fill="url(#paint1_radial_17_16432)"/>
</g>
<g id="Group_6">
<path id="Vector_3" d="M66.4141 6.3964C66.4141 9.60769 63.8278 12.2108 60.6372 12.2108C57.4466 12.2108 54.8604 9.60769 54.8604 6.3964C54.8604 3.18511 57.4466 0.582031 60.6372 0.582031C63.8275 0.582031 66.4141 3.18511 66.4141 6.3964Z" fill="url(#paint2_radial_17_16432)"/>
<path id="Vector_4" d="M72.8115 24.5938C71.2036 17.4349 66.361 12.2344 60.6372 12.2344C54.8962 12.2344 50.042 17.4666 48.4487 24.6589C48.3306 25.192 48.1824 26.4475 48.9697 27.2103C50.3 28.6777 53.3984 31.3482 60.4263 31.2738C67.0873 31.2033 70.4431 28.861 72.0059 27.4086C73.102 26.5002 72.9358 25.148 72.8115 24.5938Z" fill="url(#paint3_radial_17_16432)"/>
</g>
</g>
<path id="Vector_5" opacity="0.44" d="M60.6994 17.8778C60.2387 18.904 59.0354 21.8689 59.1528 24.6115C59.1595 24.7614 59.0381 25.0949 58.7917 25.1239C58.1731 25.196 56.9228 25.2261 55.7626 24.5511C55.6658 24.4947 55.4402 24.241 55.3888 24.021C55.1225 22.8827 54.3779 19.2111 55.3321 17.2546C55.4044 17.1064 55.7255 16.8363 55.9712 16.8343C56.8869 16.827 59.1873 16.86 60.4951 17.3367C60.6334 17.3871 60.8072 17.6378 60.6994 17.8778Z" fill="url(#paint4_linear_17_16432)"/>
<path id="Vector_6" opacity="0.44" d="M61.3282 4.08236C61.0573 4.68556 60.3505 6.42773 60.4192 8.03972C60.4231 8.12785 60.3518 8.3238 60.2069 8.34082C59.8434 8.38322 59.1084 8.40091 58.4265 8.00434C58.3695 7.97129 58.2372 7.82207 58.207 7.69289C58.0504 7.02393 57.613 4.86615 58.1738 3.7165C58.2163 3.62937 58.405 3.47048 58.5493 3.46948C59.0875 3.46514 60.4394 3.4845 61.2078 3.76457C61.2894 3.79394 61.3916 3.94116 61.3282 4.08236Z" fill="url(#paint5_linear_17_16432)"/>
</g>
</g>
<g id="Group_7">
<g id="Group_8">
<g id="Group_9">
<g id="Group_10">
<path id="Vector_7" d="M89.0991 6.3964C89.0991 9.60769 86.5128 12.2108 83.3223 12.2108C80.1317 12.2108 77.5454 9.60769 77.5454 6.3964C77.5454 3.18511 80.1317 0.582031 83.3223 0.582031C86.5125 0.582031 89.0991 3.18511 89.0991 6.3964Z" fill="url(#paint6_radial_17_16432)"/>
<path id="Vector_8" d="M95.496 24.5938C93.8881 17.4349 89.0456 12.2344 83.3218 12.2344C77.5807 12.2344 72.7265 17.4666 71.1332 24.6589C71.0152 25.192 70.8669 26.4475 71.6546 27.2103C72.9849 28.6777 76.0833 31.3482 83.1112 31.2738C89.7722 31.2033 93.128 28.861 94.6908 27.4086C95.7869 26.5002 95.6207 25.148 95.496 24.5938Z" fill="url(#paint7_radial_17_16432)"/>
</g>
<g id="Group_11">
<path id="Vector_9" d="M89.0991 6.3964C89.0991 9.60769 86.5128 12.2108 83.3223 12.2108C80.1317 12.2108 77.5454 9.60769 77.5454 6.3964C77.5454 3.18511 80.1317 0.582031 83.3223 0.582031C86.5125 0.582031 89.0991 3.18511 89.0991 6.3964Z" fill="url(#paint8_radial_17_16432)"/>
<path id="Vector_10" d="M95.496 24.5938C93.8881 17.4349 89.0456 12.2344 83.3218 12.2344C77.5807 12.2344 72.7265 17.4666 71.1332 24.6589C71.0152 25.192 70.8669 26.4475 71.6546 27.2103C72.9849 28.6777 76.0833 31.3482 83.1112 31.2738C89.7722 31.2033 93.128 28.861 94.6908 27.4086C95.7869 26.5002 95.6207 25.148 95.496 24.5938Z" fill="url(#paint9_radial_17_16432)"/>
</g>
</g>
<path id="Vector_11" opacity="0.44" d="M83.3843 17.8778C82.9236 18.904 81.7203 21.8689 81.8377 24.6115C81.8444 24.7614 81.723 25.0949 81.4762 25.1239C80.8577 25.196 79.6073 25.2261 78.4472 24.5511C78.3503 24.4947 78.1248 24.241 78.0734 24.021C77.8071 22.8827 77.0625 19.2111 78.0167 17.2546C78.089 17.1064 78.41 16.8363 78.6558 16.8343C79.5715 16.827 81.8719 16.86 83.1796 17.3367C83.3186 17.3871 83.4921 17.6378 83.3843 17.8778Z" fill="url(#paint10_linear_17_16432)"/>
<path id="Vector_12" opacity="0.44" d="M84.0128 4.08236C83.7419 4.68556 83.0351 6.42773 83.1037 8.03972C83.1077 8.12785 83.0364 8.3238 82.8915 8.34082C82.528 8.38322 81.793 8.40091 81.1111 8.00434C81.0541 7.97129 80.9217 7.82207 80.8916 7.69289C80.735 7.02393 80.2976 4.86615 80.8584 3.7165C80.9008 3.62937 81.0896 3.47048 81.2342 3.46948C81.7724 3.46514 83.1243 3.4845 83.8928 3.76457C83.974 3.79394 84.0762 3.94116 84.0128 4.08236Z" fill="url(#paint11_linear_17_16432)"/>
</g>
</g>
<g id="Group_12">
<g id="Group_13">
<g id="Group_14">
<g id="Group_15">
<path id="Vector_13" d="M18.0601 6.3964C18.0601 9.60769 15.4738 12.2108 12.2832 12.2108C9.09264 12.2108 6.50635 9.60769 6.50635 6.3964C6.50635 3.18511 9.09264 0.582031 12.2832 0.582031C15.4738 0.582031 18.0601 3.18511 18.0601 6.3964Z" fill="url(#paint12_radial_17_16432)"/>
<path id="Vector_14" d="M24.4574 24.5938C22.8496 17.4349 18.007 12.2344 12.2832 12.2344C6.54215 12.2344 1.68796 17.4666 0.0946672 24.6589C-0.0234039 25.192 -0.171656 26.4475 0.616037 27.2103C1.946 28.6774 5.04437 31.3479 12.0723 31.2734C18.7333 31.203 22.0891 28.8606 23.6518 27.4082C24.748 26.5002 24.5818 25.148 24.4574 24.5938Z" fill="url(#paint13_radial_17_16432)"/>
</g>
<g id="Group_16">
<path id="Vector_15" d="M18.0601 6.3964C18.0601 9.60769 15.4738 12.2108 12.2832 12.2108C9.09264 12.2108 6.50635 9.60769 6.50635 6.3964C6.50635 3.18511 9.09264 0.582031 12.2832 0.582031C15.4738 0.582031 18.0601 3.18511 18.0601 6.3964Z" fill="url(#paint14_radial_17_16432)"/>
<path id="Vector_16" d="M24.4574 24.5938C22.8496 17.4349 18.007 12.2344 12.2832 12.2344C6.54215 12.2344 1.68796 17.4666 0.0946672 24.6589C-0.0234039 25.192 -0.171656 26.4475 0.616037 27.2103C1.946 28.6774 5.04437 31.3479 12.0723 31.2734C18.7333 31.203 22.0891 28.8606 23.6518 27.4082C24.748 26.5002 24.5818 25.148 24.4574 24.5938Z" fill="url(#paint15_radial_17_16432)"/>
</g>
</g>
<path id="Vector_17" opacity="0.44" d="M12.3457 17.8778C11.885 18.904 10.6818 21.8689 10.7992 24.6115C10.8058 24.7614 10.6844 25.0949 10.4377 25.1239C9.81911 25.196 8.56875 25.2261 7.4086 24.5511C7.31176 24.4947 7.08623 24.241 7.03482 24.021C6.7685 22.8827 6.02392 19.2111 6.9781 17.2546C7.05041 17.1064 7.37145 16.8363 7.61721 16.8343C8.53293 16.827 10.8333 16.86 12.1411 17.3367C12.2797 17.3871 12.4535 17.6378 12.3457 17.8778Z" fill="url(#paint16_linear_17_16432)"/>
<path id="Vector_18" opacity="0.44" d="M12.9742 4.08236C12.7033 4.68556 11.9965 6.42773 12.0652 8.03972C12.0691 8.12785 11.9978 8.3238 11.8529 8.34082C11.4894 8.38322 10.7544 8.40091 10.0725 8.00434C10.0155 7.97129 9.88316 7.82207 9.85298 7.69289C9.69644 7.02393 9.25898 4.86615 9.81982 3.7165C9.86227 3.62937 10.051 3.47048 10.1956 3.46948C10.7339 3.46514 12.0857 3.4845 12.8542 3.76457C12.9354 3.79394 13.0376 3.94116 12.9742 4.08236Z" fill="url(#paint17_linear_17_16432)"/>
</g>
</g>
<g id="Group_17">
<g id="Group_18">
<g id="Group_19">
<g id="Group_20">
<path id="Vector_19" d="M40.0816 6.3964C40.0816 9.60769 37.4953 12.2108 34.3047 12.2108C31.1141 12.2108 28.5278 9.60769 28.5278 6.3964C28.5278 3.18511 31.1141 0.582031 34.3047 0.582031C37.4953 0.582031 40.0816 3.18511 40.0816 6.3964Z" fill="url(#paint18_radial_17_16432)"/>
<path id="Vector_20" d="M46.4789 24.5938C44.871 17.4349 40.0285 12.2344 34.3047 12.2344C28.5636 12.2344 23.7094 17.4662 22.1162 24.6589C21.9981 25.192 21.8498 26.4475 22.6375 27.2103C23.9678 28.6777 27.0662 31.3479 34.0941 31.2738C40.7551 31.203 44.1109 28.861 45.6737 27.4082C46.7695 26.5002 46.6033 25.148 46.4789 24.5938Z" fill="url(#paint19_radial_17_16432)"/>
</g>
<g id="Group_21">
<path id="Vector_21" d="M40.0816 6.3964C40.0816 9.60769 37.4953 12.2108 34.3047 12.2108C31.1141 12.2108 28.5278 9.60769 28.5278 6.3964C28.5278 3.18511 31.1141 0.582031 34.3047 0.582031C37.4953 0.582031 40.0816 3.18511 40.0816 6.3964Z" fill="url(#paint20_radial_17_16432)"/>
<path id="Vector_22" d="M46.4789 24.5938C44.871 17.4349 40.0285 12.2344 34.3047 12.2344C28.5636 12.2344 23.7094 17.4662 22.1162 24.6589C21.9981 25.192 21.8498 26.4475 22.6375 27.2103C23.9678 28.6777 27.0662 31.3479 34.0941 31.2738C40.7551 31.203 44.1109 28.861 45.6737 27.4082C46.7695 26.5002 46.6033 25.148 46.4789 24.5938Z" fill="url(#paint21_radial_17_16432)"/>
</g>
</g>
<path id="Vector_23" opacity="0.44" d="M34.367 17.8778C33.9063 18.904 32.7031 21.8689 32.8205 24.6115C32.8271 24.7614 32.7057 25.0949 32.459 25.1239C31.8404 25.196 30.5901 25.2261 29.4296 24.5511C29.3328 24.4947 29.1072 24.2413 29.0558 24.021C28.7895 22.8827 28.0449 19.2111 28.9991 17.2546C29.0714 17.1064 29.3925 16.836 29.6382 16.8343C30.5539 16.827 32.8543 16.86 34.1621 17.3367C34.301 17.3871 34.4748 17.6378 34.367 17.8778Z" fill="url(#paint22_linear_17_16432)"/>
<path id="Vector_24" opacity="0.44" d="M34.9957 4.08236C34.7248 4.68556 34.018 6.42773 34.0866 8.03972C34.0906 8.12785 34.0193 8.3238 33.8744 8.34082C33.5109 8.38322 32.7759 8.40091 32.094 8.00434C32.037 7.97129 31.9046 7.82207 31.8745 7.69289C31.7179 7.02393 31.2805 4.86615 31.8413 3.7165C31.8838 3.62937 32.0725 3.47048 32.2171 3.46948C32.7554 3.46514 34.1072 3.4845 34.8757 3.76457C34.9569 3.79394 35.0591 3.94116 34.9957 4.08236Z" fill="url(#paint23_linear_17_16432)"/>
</g>
</g>
<g id="Group_22">
<g id="Group_23">
<g id="Group_24">
<g id="Group_25">
<path id="Vector_25" d="M27.6438 12.8253C27.6438 16.8394 24.4108 20.0934 20.4226 20.0934C16.4344 20.0934 13.2017 16.8394 13.2017 12.8253C13.2017 8.81115 16.4347 5.55746 20.4226 5.55713C24.4105 5.55713 27.6438 8.81115 27.6438 12.8253Z" fill="url(#paint24_radial_17_16432)"/>
<path id="Vector_26" d="M35.64 35.5719C33.6298 26.623 27.577 20.1223 20.422 20.1223C13.2456 20.1223 7.17785 26.6624 5.18623 35.653C5.03864 36.3196 4.85324 37.8886 5.83794 38.8419C7.50055 40.6762 11.3737 44.014 20.1587 43.9212C28.485 43.8331 32.6796 40.9052 34.6334 39.0893C36.0035 37.9546 35.7955 36.2645 35.64 35.5719Z" fill="url(#paint25_radial_17_16432)"/>
</g>
<g id="Group_26">
<path id="Vector_27" d="M27.6438 12.8253C27.6438 16.8394 24.4108 20.0934 20.4226 20.0934C16.4344 20.0934 13.2017 16.8394 13.2017 12.8253C13.2017 8.81115 16.4347 5.55746 20.4226 5.55713C24.4105 5.55713 27.6438 8.81115 27.6438 12.8253Z" fill="url(#paint26_radial_17_16432)"/>
<path id="Vector_28" d="M35.64 35.5719C33.6298 26.623 27.577 20.1223 20.422 20.1223C13.2456 20.1223 7.17785 26.6624 5.18623 35.653C5.03864 36.3196 4.85324 37.8886 5.83794 38.8419C7.50055 40.6762 11.3737 44.014 20.1587 43.9212C28.485 43.8331 32.6796 40.9052 34.6334 39.0893C36.0035 37.9546 35.7955 36.2645 35.64 35.5719Z" fill="url(#paint27_radial_17_16432)"/>
</g>
</g>
<path id="Vector_29" opacity="0.44" d="M20.5002 27.1773C19.9241 28.4602 18.4204 32.1662 18.567 35.5944C18.5749 35.782 18.4237 36.199 18.1153 36.235C17.3422 36.3252 15.7794 36.3629 14.3287 35.519C14.2076 35.4486 13.9257 35.1314 13.8617 34.8564C13.5287 33.4337 12.5981 28.8437 13.7911 26.3985C13.8816 26.2133 14.2826 25.8755 14.59 25.8731C15.7346 25.8638 18.6101 25.9052 20.2449 26.501C20.4176 26.5638 20.6349 26.8769 20.5002 27.1773Z" fill="url(#paint28_linear_17_16432)"/>
<path id="Vector_30" opacity="0.44" d="M21.2859 9.9328C20.9473 10.6865 20.0634 12.8647 20.1496 14.8792C20.1543 14.9894 20.0654 15.2344 19.8843 15.2558C19.4299 15.3089 18.5116 15.3309 17.6589 14.8352C17.5876 14.7938 17.4221 14.6075 17.3843 14.4456C17.1886 13.6094 16.6417 10.9122 17.3428 9.47514C17.3959 9.36631 17.6317 9.1677 17.8124 9.16636C18.485 9.16102 20.1752 9.18505 21.1357 9.53522C21.2375 9.57228 21.3652 9.75621 21.2859 9.9328Z" fill="url(#paint29_linear_17_16432)"/>
</g>
</g>
<g id="Group_27">
<g id="Group_28">
<g id="Group_29">
<g id="Group_30">
<path id="Vector_31" d="M54.5672 12.8253C54.5672 16.8394 51.3341 20.0934 47.3459 20.0934C43.3577 20.0934 40.125 16.8394 40.125 12.8253C40.125 8.81115 43.358 5.55713 47.3459 5.55713C51.3341 5.55713 54.5672 8.81115 54.5672 12.8253Z" fill="url(#paint30_radial_17_16432)"/>
<path id="Vector_32" d="M62.5638 35.5719C60.5536 26.623 54.5008 20.1223 47.3459 20.1223C40.1694 20.1223 34.1017 26.6624 32.1101 35.653C31.9625 36.3196 31.7771 37.8886 32.7618 38.8419C34.4244 40.6762 38.2975 44.014 47.0825 43.9212C55.4089 43.8331 59.6034 40.9052 61.5572 39.0893C62.927 37.9546 62.7193 36.2645 62.5638 35.5719Z" fill="url(#paint31_radial_17_16432)"/>
</g>
<path id="Vector_33" d="M47.4236 27.1773C46.8475 28.4602 45.3437 32.1662 45.4903 35.5944C45.4983 35.782 45.347 36.199 45.0386 36.235C44.2655 36.3252 42.7027 36.3629 41.252 35.519C41.131 35.4486 40.8491 35.1314 40.7851 34.8564C40.4521 33.4337 39.5214 28.8437 40.7144 26.3985C40.805 26.2133 41.2059 25.8755 41.5134 25.8731C42.6579 25.8638 45.5334 25.9052 47.1682 26.501C47.3413 26.5638 47.5582 26.8769 47.4236 27.1773Z" fill="url(#paint32_radial_17_16432)"/>
<path id="Vector_34" d="M48.2097 9.9328C47.8711 10.6865 46.9872 12.8647 47.0735 14.8792C47.0781 14.9894 46.9892 15.2344 46.8081 15.2558C46.3538 15.3089 45.4354 15.3309 44.5827 14.8352C44.5114 14.7938 44.3459 14.6075 44.3081 14.4456C44.1124 13.6094 43.5655 10.9122 44.2666 9.47514C44.3197 9.36631 44.5555 9.1677 44.7363 9.16636C45.4089 9.16102 47.099 9.18505 48.0595 9.53522C48.1613 9.57228 48.289 9.75621 48.2097 9.9328Z" fill="url(#paint33_radial_17_16432)"/>
</g>
</g>
<g id="Group_31">
<g id="Group_32">
<g id="Group_33">
<path id="Vector_35" d="M54.5672 12.8253C54.5672 16.8394 51.3341 20.0934 47.3459 20.0934C43.3577 20.0934 40.125 16.8394 40.125 12.8253C40.125 8.81115 43.358 5.55713 47.3459 5.55713C51.3341 5.55713 54.5672 8.81115 54.5672 12.8253Z" fill="url(#paint34_radial_17_16432)"/>
<path id="Vector_36" d="M62.5638 35.5719C60.5536 26.623 54.5008 20.1223 47.3459 20.1223C40.1694 20.1223 34.1017 26.6624 32.1101 35.653C31.9625 36.3196 31.7771 37.8886 32.7618 38.8419C34.4244 40.6762 38.2975 44.014 47.0825 43.9212C55.4089 43.8331 59.6034 40.9052 61.5572 39.0893C62.927 37.9546 62.7193 36.2645 62.5638 35.5719Z" fill="url(#paint35_radial_17_16432)"/>
</g>
<path id="Vector_37" opacity="0.44" d="M47.4236 27.1773C46.8475 28.4602 45.3437 32.1662 45.4903 35.5944C45.4983 35.782 45.347 36.199 45.0386 36.235C44.2655 36.3252 42.7027 36.3629 41.252 35.519C41.131 35.4486 40.8491 35.1314 40.7851 34.8564C40.4521 33.4337 39.5214 28.8437 40.7144 26.3985C40.805 26.2133 41.2059 25.8755 41.5134 25.8731C42.6579 25.8638 45.5334 25.9052 47.1682 26.501C47.3413 26.5638 47.5582 26.8769 47.4236 27.1773Z" fill="url(#paint36_linear_17_16432)"/>
<path id="Vector_38" opacity="0.44" d="M48.2097 9.9328C47.8711 10.6865 46.9872 12.8647 47.0735 14.8792C47.0781 14.9894 46.9892 15.2344 46.8081 15.2558C46.3538 15.3089 45.4354 15.3309 44.5827 14.8352C44.5114 14.7938 44.3459 14.6075 44.3081 14.4456C44.1124 13.6094 43.5655 10.9122 44.2666 9.47514C44.3197 9.36631 44.5555 9.1677 44.7363 9.16636C45.4089 9.16102 47.099 9.18505 48.0595 9.53522C48.1613 9.57228 48.289 9.75621 48.2097 9.9328Z" fill="url(#paint37_linear_17_16432)"/>
</g>
</g>
</g>
<g id="Group_34">
<g id="Group_35">
<g id="Group_36">
<g id="Group_37">
<path id="Vector_39" d="M40.944 20.8715C40.944 26.0623 36.7631 30.2704 31.6058 30.2704C26.4485 30.2704 22.2676 26.0623 22.2676 20.8715C22.2676 15.6807 26.4485 11.4727 31.6058 11.4727C36.7631 11.4727 40.944 15.6804 40.944 20.8715Z" fill="url(#paint38_radial_17_16432)"/>
<path id="Vector_40" d="M51.2851 50.2871C48.6859 38.7148 40.8584 30.3083 31.6057 30.3083C22.3252 30.3083 14.4785 38.7659 11.9031 50.3923C11.7121 51.2542 11.4726 53.2834 12.7455 54.5162C14.8957 56.8883 19.9041 61.2048 31.2648 61.0846C42.0325 60.9705 47.4565 57.1844 49.9831 54.8363C51.7548 53.3685 51.4861 51.1827 51.2851 50.2871Z" fill="url(#paint39_radial_17_16432)"/>
</g>
<g id="Group_38">
<path id="Vector_41" d="M40.944 20.8715C40.944 26.0623 36.7631 30.2704 31.6058 30.2704C26.4485 30.2704 22.2676 26.0623 22.2676 20.8715C22.2676 15.6807 26.4485 11.4727 31.6058 11.4727C36.7631 11.4727 40.944 15.6804 40.944 20.8715Z" fill="url(#paint40_radial_17_16432)"/>
<path id="Vector_42" d="M51.2851 50.2871C48.6859 38.7148 40.8584 30.3083 31.6057 30.3083C22.3252 30.3083 14.4785 38.7659 11.9031 50.3923C11.7121 51.2542 11.4726 53.2834 12.7455 54.5162C14.8957 56.8883 19.9041 61.2048 31.2648 61.0846C42.0325 60.9705 47.4565 57.1844 49.9831 54.8363C51.7548 53.3685 51.4861 51.1827 51.2851 50.2871Z" fill="url(#paint41_radial_17_16432)"/>
</g>
</g>
<path id="Vector_43" opacity="0.44" d="M31.7065 39.4308C30.9616 41.0895 29.0171 45.8821 29.2064 50.3154C29.2171 50.5581 29.021 51.0969 28.6224 51.1436C27.6228 51.2601 25.6013 51.3089 23.7258 50.2176C23.5689 50.1265 23.2047 49.7166 23.1218 49.3607C22.6913 47.5208 21.4877 41.5855 23.0303 38.4233C23.1473 38.1836 23.6661 37.747 24.0634 37.744C25.5436 37.732 29.2622 37.7854 31.3758 38.5558C31.6 38.6376 31.8806 39.0426 31.7065 39.4308Z" fill="url(#paint42_linear_17_16432)"/>
<path id="Vector_44" opacity="0.44" d="M32.7226 17.1309C32.2848 18.1056 31.1419 20.9223 31.2533 23.5278C31.2596 23.6703 31.1442 23.9871 30.9101 24.0145C30.3227 24.0829 29.1347 24.1116 28.0323 23.4703C27.94 23.4166 27.7261 23.1759 27.6774 22.9666C27.4243 21.8854 26.7169 18.397 27.6236 16.5387C27.6923 16.3978 27.9971 16.1411 28.2309 16.1394C29.1009 16.1324 31.2862 16.1638 32.5286 16.6165C32.6599 16.6649 32.8251 16.9029 32.7226 17.1309Z" fill="url(#paint43_linear_17_16432)"/>
</g>
</g>
<g id="Group_39">
<g id="Group_40">
<g id="Group_41">
<g id="Group_42">
<path id="Vector_45" d="M81.1511 12.8253C81.1511 16.8394 77.9181 20.0934 73.9299 20.0934C69.9417 20.0934 66.709 16.8394 66.709 12.8253C66.709 8.81115 69.942 5.55713 73.9299 5.55713C77.9181 5.55713 81.1511 8.81115 81.1511 12.8253Z" fill="url(#paint44_radial_17_16432)"/>
<path id="Vector_46" d="M89.1478 35.5719C87.1376 26.623 81.0848 20.1223 73.9299 20.1223C66.7534 20.1223 60.6857 26.6624 58.694 35.653C58.5465 36.3196 58.3611 37.8886 59.3458 38.8419C61.0084 40.6762 64.8815 44.014 73.6665 43.9212C81.9929 43.8331 86.1874 40.9052 88.1412 39.0893C89.5109 37.9546 89.3033 36.2645 89.1478 35.5719Z" fill="url(#paint45_radial_17_16432)"/>
</g>
<g id="Group_43">
<path id="Vector_47" d="M81.1511 12.8253C81.1511 16.8394 77.9181 20.0934 73.9299 20.0934C69.9417 20.0934 66.709 16.8394 66.709 12.8253C66.709 8.81115 69.942 5.55713 73.9299 5.55713C77.9181 5.55713 81.1511 8.81115 81.1511 12.8253Z" fill="url(#paint46_radial_17_16432)"/>
<path id="Vector_48" d="M89.1478 35.5719C87.1376 26.623 81.0848 20.1223 73.9299 20.1223C66.7534 20.1223 60.6857 26.6624 58.694 35.653C58.5465 36.3196 58.3611 37.8886 59.3458 38.8419C61.0084 40.6762 64.8815 44.014 73.6665 43.9212C81.9929 43.8331 86.1874 40.9052 88.1412 39.0893C89.5109 37.9546 89.3033 36.2645 89.1478 35.5719Z" fill="url(#paint47_radial_17_16432)"/>
</g>
</g>
<path id="Vector_49" opacity="0.44" d="M74.0076 27.1773C73.4315 28.4602 71.9277 32.1662 72.0743 35.5944C72.0823 35.782 71.931 36.199 71.6226 36.235C70.8495 36.3252 69.2867 36.3629 67.836 35.519C67.715 35.4486 67.4331 35.1314 67.369 34.8564C67.0361 33.4337 66.1054 28.8437 67.2984 26.3985C67.3889 26.2133 67.7899 25.8755 68.0974 25.8731C69.2419 25.8638 72.1174 25.9052 73.7522 26.501C73.925 26.5638 74.1422 26.8769 74.0076 27.1773Z" fill="url(#paint48_linear_17_16432)"/>
<path id="Vector_50" opacity="0.44" d="M74.7937 9.9328C74.4551 10.6865 73.5712 12.8647 73.6575 14.8792C73.6621 14.9894 73.5732 15.2344 73.3921 15.2558C72.9378 15.3089 72.0194 15.3309 71.1667 14.8352C71.0954 14.7938 70.9299 14.6075 70.8921 14.4456C70.6964 13.6094 70.1495 10.9122 70.8506 9.47514C70.9037 9.36631 71.1395 9.1677 71.3202 9.16636C71.9928 9.16102 73.683 9.18505 74.6435 9.53522C74.745 9.57228 74.8727 9.75621 74.7937 9.9328Z" fill="url(#paint49_linear_17_16432)"/>
</g>
</g>
<g id="Group_44">
<g id="Group_45">
<g id="Group_46">
<path id="Vector_51" d="M72.0724 20.8805C72.0724 26.0876 67.8782 30.309 62.7047 30.309C57.5311 30.309 53.3369 26.0876 53.3369 20.8805C53.3369 15.6733 57.5311 11.4519 62.7047 11.4519C67.8782 11.4519 72.0724 15.6733 72.0724 20.8805Z" fill="url(#paint50_radial_17_16432)"/>
<path id="Vector_52" d="M82.4462 50.389C79.8386 38.7803 71.9862 30.3472 62.7047 30.3472C53.395 30.3472 45.5237 38.831 42.9401 50.4945C42.7487 51.3591 42.5083 53.3947 43.7855 54.6315C45.9426 57.0112 50.9666 61.3411 62.3631 61.2206C73.1646 61.1061 78.6059 57.308 81.1404 54.9526C82.9174 53.4801 82.6478 51.2873 82.4462 50.389Z" fill="url(#paint51_radial_17_16432)"/>
</g>
<path id="Vector_53" opacity="0.44" d="M62.806 39.4986C62.0588 41.1627 60.1079 45.9703 60.298 50.4177C60.3086 50.661 60.1119 51.2018 59.7119 51.2485C58.709 51.3654 56.6815 51.4144 54.7997 50.3199C54.6425 50.2284 54.2773 49.8175 54.1938 49.4603C53.7619 47.6143 52.5547 41.6604 54.1019 38.4882C54.2193 38.2478 54.7397 37.8095 55.1383 37.8065C56.6232 37.7945 60.3534 37.8479 62.474 38.621C62.6989 38.7028 62.9808 39.1091 62.806 39.4986Z" fill="url(#paint52_linear_17_16432)"/>
<path id="Vector_54" opacity="0.44" d="M63.825 17.1285C63.3859 18.1062 62.2394 20.932 62.3511 23.5454C62.3574 23.6883 62.242 24.0061 62.0069 24.0338C61.4175 24.1025 60.2259 24.1313 59.1201 23.488C59.0279 23.4343 58.813 23.1926 58.7639 22.9829C58.5102 21.898 57.8004 18.399 58.7098 16.5347C58.7788 16.3935 59.0846 16.1357 59.3188 16.1341C60.1914 16.1271 62.3836 16.1584 63.63 16.6128C63.762 16.6608 63.9275 16.8995 63.825 17.1285Z" fill="url(#paint53_linear_17_16432)"/>
</g>
</g>
<g id="Group_47">
<g id="Group_48">
<g id="Group_49">
<path id="Vector_55" d="M60.5282 31.8556C60.5282 39.1779 54.631 45.1134 47.356 45.1134C40.0813 45.1134 34.1841 39.1779 34.1841 31.8556C34.1841 24.5338 40.0813 18.5982 47.356 18.5979C54.6306 18.5979 60.5282 24.5334 60.5282 31.8556Z" fill="url(#paint54_radial_17_16432)"/>
<path id="Vector_56" d="M75.1149 73.348C71.4483 57.0245 60.407 45.1667 47.3559 45.1667C34.2652 45.1667 23.1971 57.0963 19.564 73.4962C19.2947 74.7119 18.9568 77.5744 20.7527 79.3132C23.7858 82.6594 30.8505 88.7478 46.8753 88.5782C62.0637 88.4173 69.7144 83.0767 73.2784 79.7646C75.7775 77.6946 75.3984 74.6111 75.1149 73.348Z" fill="url(#paint55_radial_17_16432)"/>
</g>
<path id="Vector_57" opacity="0.44" d="M47.4983 58.035C46.4476 60.3747 43.7047 67.1351 43.9717 73.3884C43.9863 73.7306 43.71 74.491 43.1479 74.5568C41.7377 74.721 38.8867 74.7898 36.2411 73.2509C36.0202 73.1224 35.5064 72.5442 35.389 72.0421C34.7817 69.4467 33.084 61.0747 35.26 56.6143C35.4248 56.2765 36.1568 55.6602 36.7173 55.6559C38.8051 55.6392 44.0503 55.7143 47.032 56.8012C47.348 56.916 47.744 57.4872 47.4983 58.035Z" fill="url(#paint56_linear_17_16432)"/>
<path id="Vector_58" opacity="0.44" d="M48.9313 26.5793C48.3138 27.9543 46.7016 31.9273 46.8588 35.6023C46.8674 35.8032 46.7052 36.2499 46.3745 36.2886C45.546 36.3851 43.8702 36.4258 42.3153 35.5211C42.1853 35.4454 41.8835 35.1055 41.8145 34.8108C41.4577 33.2856 40.46 28.3652 41.7386 25.7437C41.8354 25.5451 42.2656 25.1829 42.5949 25.1803C43.8221 25.1706 46.9045 25.2146 48.657 25.8536C48.8428 25.9217 49.0759 26.2575 48.9313 26.5793Z" fill="url(#paint57_linear_17_16432)"/>
</g>
</g>
</g>
</g>
<defs>
<radialGradient id="paint0_radial_17_16432" cx="0" cy="0" r="1" gradientUnits="userSpaceOnUse" gradientTransform="translate(58.0131 15.9285) scale(12.9515 13.0356)">
<stop stop-color="#1C75BC"/>
<stop offset="1" stop-color="#2B3990"/>
</radialGradient>
<radialGradient id="paint1_radial_17_16432" cx="0" cy="0" r="1" gradientUnits="userSpaceOnUse" gradientTransform="translate(58.0131 15.9284) scale(12.9515 13.0356)">
<stop stop-color="#1C75BC"/>
<stop offset="1" stop-color="#2B3990"/>
</radialGradient>
<radialGradient id="paint2_radial_17_16432" cx="0" cy="0" r="1" gradientUnits="userSpaceOnUse" gradientTransform="translate(59.4066 6.39646) scale(5.51934 5.55518)">
<stop stop-color="white"/>
<stop offset="1" stop-color="#1C75BC"/>
</radialGradient>
<radialGradient id="paint3_radial_17_16432" cx="0" cy="0" r="1" gradientUnits="userSpaceOnUse" gradientTransform="translate(58.0131 21.7546) scale(10.72 10.7896)">
<stop stop-color="#1C75BC"/>
<stop offset="1" stop-color="#2B3990"/>
</radialGradient>
<linearGradient id="paint4_linear_17_16432" x1="56.8836" y1="24.7332" x2="57.931" y2="17.6377" gradientUnits="userSpaceOnUse">
<stop stop-color="#58595B"/>
<stop offset="0.00649029" stop-color="#5A5B5D"/>
<stop offset="0.1875" stop-color="#8C8D8E"/>
<stop offset="0.3665" stop-color="#B5B6B7"/>
<stop offset="0.5401" stop-color="#D5D6D6"/>
<stop offset="0.7067" stop-color="#ECECED"/>
<stop offset="0.8634" stop-color="#FAFAFA"/>
<stop offset="1" stop-color="white"/>
</linearGradient>
<linearGradient id="paint5_linear_17_16432" x1="59.0857" y1="8.11125" x2="59.7013" y2="3.94125" gradientUnits="userSpaceOnUse">
<stop stop-color="#58595B"/>
<stop offset="0.00649029" stop-color="#5A5B5D"/>
<stop offset="0.1875" stop-color="#8C8D8E"/>
<stop offset="0.3665" stop-color="#B5B6B7"/>
<stop offset="0.5401" stop-color="#D5D6D6"/>
<stop offset="0.7067" stop-color="#ECECED"/>
<stop offset="0.8634" stop-color="#FAFAFA"/>
<stop offset="1" stop-color="white"/>
</linearGradient>
<radialGradient id="paint6_radial_17_16432" cx="0" cy="0" r="1" gradientUnits="userSpaceOnUse" gradientTransform="translate(80.6981 15.9285) scale(12.9515 13.0356)">
<stop stop-color="#1C75BC"/>
<stop offset="1" stop-color="#2B3990"/>
</radialGradient>
<radialGradient id="paint7_radial_17_16432" cx="0" cy="0" r="1" gradientUnits="userSpaceOnUse" gradientTransform="translate(80.6979 15.9284) scale(12.9515 13.0356)">
<stop stop-color="#1C75BC"/>
<stop offset="1" stop-color="#2B3990"/>
</radialGradient>
<radialGradient id="paint8_radial_17_16432" cx="0" cy="0" r="1" gradientUnits="userSpaceOnUse" gradientTransform="translate(82.0916 6.39646) scale(5.51934 5.55518)">
<stop stop-color="white"/>
<stop offset="1" stop-color="#1C75BC"/>
</radialGradient>
<radialGradient id="paint9_radial_17_16432" cx="0" cy="0" r="1" gradientUnits="userSpaceOnUse" gradientTransform="translate(80.6979 21.7546) scale(10.72 10.7896)">
<stop stop-color="#1C75BC"/>
<stop offset="1" stop-color="#2B3990"/>
</radialGradient>
<linearGradient id="paint10_linear_17_16432" x1="79.5688" y1="24.7332" x2="80.6162" y2="17.6377" gradientUnits="userSpaceOnUse">
<stop stop-color="#58595B"/>
<stop offset="0.00649029" stop-color="#5A5B5D"/>
<stop offset="0.1875" stop-color="#8C8D8E"/>
<stop offset="0.3665" stop-color="#B5B6B7"/>
<stop offset="0.5401" stop-color="#D5D6D6"/>
<stop offset="0.7067" stop-color="#ECECED"/>
<stop offset="0.8634" stop-color="#FAFAFA"/>
<stop offset="1" stop-color="white"/>
</linearGradient>
<linearGradient id="paint11_linear_17_16432" x1="81.7705" y1="8.11125" x2="82.3861" y2="3.94125" gradientUnits="userSpaceOnUse">
<stop stop-color="#58595B"/>
<stop offset="0.00649029" stop-color="#5A5B5D"/>
<stop offset="0.1875" stop-color="#8C8D8E"/>
<stop offset="0.3665" stop-color="#B5B6B7"/>
<stop offset="0.5401" stop-color="#D5D6D6"/>
<stop offset="0.7067" stop-color="#ECECED"/>
<stop offset="0.8634" stop-color="#FAFAFA"/>
<stop offset="1" stop-color="white"/>
</linearGradient>
<radialGradient id="paint12_radial_17_16432" cx="0" cy="0" r="1" gradientUnits="userSpaceOnUse" gradientTransform="translate(9.65924 15.9285) scale(12.9515 13.0356)">
<stop stop-color="#1C75BC"/>
<stop offset="1" stop-color="#2B3990"/>
</radialGradient>
<radialGradient id="paint13_radial_17_16432" cx="0" cy="0" r="1" gradientUnits="userSpaceOnUse" gradientTransform="translate(9.65922 15.9284) scale(12.9515 13.0356)">
<stop stop-color="#1C75BC"/>
<stop offset="1" stop-color="#2B3990"/>
</radialGradient>
<radialGradient id="paint14_radial_17_16432" cx="0" cy="0" r="1" gradientUnits="userSpaceOnUse" gradientTransform="translate(11.0527 6.39646) scale(5.51934 5.55518)">
<stop stop-color="white"/>
<stop offset="1" stop-color="#1C75BC"/>
</radialGradient>
<radialGradient id="paint15_radial_17_16432" cx="0" cy="0" r="1" gradientUnits="userSpaceOnUse" gradientTransform="translate(9.65922 21.7546) scale(10.72 10.7896)">
<stop stop-color="#1C75BC"/>
<stop offset="1" stop-color="#2B3990"/>
</radialGradient>
<linearGradient id="paint16_linear_17_16432" x1="8.53007" y1="24.7332" x2="9.57751" y2="17.6377" gradientUnits="userSpaceOnUse">
<stop stop-color="#58595B"/>
<stop offset="0.00649029" stop-color="#5A5B5D"/>
<stop offset="0.1875" stop-color="#8C8D8E"/>
<stop offset="0.3665" stop-color="#B5B6B7"/>
<stop offset="0.5401" stop-color="#D5D6D6"/>
<stop offset="0.7067" stop-color="#ECECED"/>
<stop offset="0.8634" stop-color="#FAFAFA"/>
<stop offset="1" stop-color="white"/>
</linearGradient>
<linearGradient id="paint17_linear_17_16432" x1="10.7318" y1="8.11125" x2="11.3474" y2="3.94125" gradientUnits="userSpaceOnUse">
<stop stop-color="#58595B"/>
<stop offset="0.00649029" stop-color="#5A5B5D"/>
<stop offset="0.1875" stop-color="#8C8D8E"/>
<stop offset="0.3665" stop-color="#B5B6B7"/>
<stop offset="0.5401" stop-color="#D5D6D6"/>
<stop offset="0.7067" stop-color="#ECECED"/>
<stop offset="0.8634" stop-color="#FAFAFA"/>
<stop offset="1" stop-color="white"/>
</linearGradient>
<radialGradient id="paint18_radial_17_16432" cx="0" cy="0" r="1" gradientUnits="userSpaceOnUse" gradientTransform="translate(31.6807 15.9285) scale(12.9515 13.0356)">
<stop stop-color="#1C75BC"/>
<stop offset="1" stop-color="#2B3990"/>
</radialGradient>
<radialGradient id="paint19_radial_17_16432" cx="0" cy="0" r="1" gradientUnits="userSpaceOnUse" gradientTransform="translate(31.6806 15.9285) scale(12.9515 13.0356)">
<stop stop-color="#1C75BC"/>
<stop offset="1" stop-color="#2B3990"/>
</radialGradient>
<radialGradient id="paint20_radial_17_16432" cx="0" cy="0" r="1" gradientUnits="userSpaceOnUse" gradientTransform="translate(33.0741 6.39647) scale(5.51935 5.55519)">
<stop stop-color="white"/>
<stop offset="1" stop-color="#1C75BC"/>
</radialGradient>
<radialGradient id="paint21_radial_17_16432" cx="0" cy="0" r="1" gradientUnits="userSpaceOnUse" gradientTransform="translate(31.6806 21.7546) scale(10.72 10.7896)">
<stop stop-color="#1C75BC"/>
<stop offset="1" stop-color="#2B3990"/>
</radialGradient>
<linearGradient id="paint22_linear_17_16432" x1="30.5513" y1="24.7332" x2="31.5988" y2="17.6376" gradientUnits="userSpaceOnUse">
<stop stop-color="#58595B"/>
<stop offset="0.00649029" stop-color="#5A5B5D"/>
<stop offset="0.1875" stop-color="#8C8D8E"/>
<stop offset="0.3665" stop-color="#B5B6B7"/>
<stop offset="0.5401" stop-color="#D5D6D6"/>
<stop offset="0.7067" stop-color="#ECECED"/>
<stop offset="0.8634" stop-color="#FAFAFA"/>
<stop offset="1" stop-color="white"/>
</linearGradient>
<linearGradient id="paint23_linear_17_16432" x1="32.7532" y1="8.11125" x2="33.3688" y2="3.94125" gradientUnits="userSpaceOnUse">
<stop stop-color="#58595B"/>
<stop offset="0.00649029" stop-color="#5A5B5D"/>
<stop offset="0.1875" stop-color="#8C8D8E"/>
<stop offset="0.3665" stop-color="#B5B6B7"/>
<stop offset="0.5401" stop-color="#D5D6D6"/>
<stop offset="0.7067" stop-color="#ECECED"/>
<stop offset="0.8634" stop-color="#FAFAFA"/>
<stop offset="1" stop-color="white"/>
</linearGradient>
<radialGradient id="paint24_radial_17_16432" cx="0" cy="0" r="1" gradientUnits="userSpaceOnUse" gradientTransform="translate(17.1425 24.7403) scale(16.1894 16.2945)">
<stop stop-color="#1C75BC"/>
<stop offset="1" stop-color="#2B3990"/>
</radialGradient>
<radialGradient id="paint25_radial_17_16432" cx="0" cy="0" r="1" gradientUnits="userSpaceOnUse" gradientTransform="translate(17.1423 24.7402) scale(16.1894 16.2945)">
<stop stop-color="#1C75BC"/>
<stop offset="1" stop-color="#2B3990"/>
</radialGradient>
<radialGradient id="paint26_radial_17_16432" cx="0" cy="0" r="1" gradientUnits="userSpaceOnUse" gradientTransform="translate(18.8843 12.8252) scale(6.89918 6.94398)">
<stop stop-color="white"/>
<stop offset="1" stop-color="#1C75BC"/>
</radialGradient>
<radialGradient id="paint27_radial_17_16432" cx="0" cy="0" r="1" gradientUnits="userSpaceOnUse" gradientTransform="translate(17.1423 32.0229) scale(13.4 13.487)">
<stop stop-color="#1C75BC"/>
<stop offset="1" stop-color="#2B3990"/>
</radialGradient>
<linearGradient id="paint28_linear_17_16432" x1="15.7305" y1="35.7463" x2="17.0398" y2="26.8769" gradientUnits="userSpaceOnUse">
<stop stop-color="#58595B"/>
<stop offset="0.00649029" stop-color="#5A5B5D"/>
<stop offset="0.1875" stop-color="#8C8D8E"/>
<stop offset="0.3665" stop-color="#B5B6B7"/>
<stop offset="0.5401" stop-color="#D5D6D6"/>
<stop offset="0.7067" stop-color="#ECECED"/>
<stop offset="0.8634" stop-color="#FAFAFA"/>
<stop offset="1" stop-color="white"/>
</linearGradient>
<linearGradient id="paint29_linear_17_16432" x1="18.483" y1="14.9687" x2="19.2525" y2="9.75629" gradientUnits="userSpaceOnUse">
<stop stop-color="#58595B"/>
<stop offset="0.00649029" stop-color="#5A5B5D"/>
<stop offset="0.1875" stop-color="#8C8D8E"/>
<stop offset="0.3665" stop-color="#B5B6B7"/>
<stop offset="0.5401" stop-color="#D5D6D6"/>
<stop offset="0.7067" stop-color="#ECECED"/>
<stop offset="0.8634" stop-color="#FAFAFA"/>
<stop offset="1" stop-color="white"/>
</linearGradient>
<radialGradient id="paint30_radial_17_16432" cx="0" cy="0" r="1" gradientUnits="userSpaceOnUse" gradientTransform="translate(44.066 24.7403) scale(16.1894 16.2945)">
<stop stop-color="#6D6E71"/>
<stop offset="1"/>
</radialGradient>
<radialGradient id="paint31_radial_17_16432" cx="0" cy="0" r="1" gradientUnits="userSpaceOnUse" gradientTransform="translate(44.0659 24.7402) scale(16.1893 16.2945)">
<stop stop-color="#6D6E71"/>
<stop offset="1"/>
</radialGradient>
<radialGradient id="paint32_radial_17_16432" cx="0" cy="0" r="1" gradientUnits="userSpaceOnUse" gradientTransform="translate(44.0657 24.7404) scale(16.1894 16.2945)">
<stop stop-color="#6D6E71"/>
<stop offset="1"/>
</radialGradient>
<radialGradient id="paint33_radial_17_16432" cx="0" cy="0" r="1" gradientUnits="userSpaceOnUse" gradientTransform="translate(44.0662 24.7403) scale(16.1894 16.2945)">
<stop stop-color="#6D6E71"/>
<stop offset="1"/>
</radialGradient>
<radialGradient id="paint34_radial_17_16432" cx="0" cy="0" r="1" gradientUnits="userSpaceOnUse" gradientTransform="translate(45.8078 12.8252) scale(6.89919 6.94399)">
<stop stop-color="white"/>
<stop offset="1" stop-color="#1C75BC"/>
</radialGradient>
<radialGradient id="paint35_radial_17_16432" cx="0" cy="0" r="1" gradientUnits="userSpaceOnUse" gradientTransform="translate(44.0659 32.0229) scale(13.4 13.487)">
<stop stop-color="#1C75BC"/>
<stop offset="1" stop-color="#2B3990"/>
</radialGradient>
<linearGradient id="paint36_linear_17_16432" x1="42.6541" y1="35.7463" x2="43.9634" y2="26.8769" gradientUnits="userSpaceOnUse">
<stop stop-color="#58595B"/>
<stop offset="0.00649029" stop-color="#5A5B5D"/>
<stop offset="0.1875" stop-color="#8C8D8E"/>
<stop offset="0.3665" stop-color="#B5B6B7"/>
<stop offset="0.5401" stop-color="#D5D6D6"/>
<stop offset="0.7067" stop-color="#ECECED"/>
<stop offset="0.8634" stop-color="#FAFAFA"/>
<stop offset="1" stop-color="white"/>
</linearGradient>
<linearGradient id="paint37_linear_17_16432" x1="45.4067" y1="14.9688" x2="46.1761" y2="9.75629" gradientUnits="userSpaceOnUse">
<stop stop-color="#58595B"/>
<stop offset="0.00649029" stop-color="#5A5B5D"/>
<stop offset="0.1875" stop-color="#8C8D8E"/>
<stop offset="0.3665" stop-color="#B5B6B7"/>
<stop offset="0.5401" stop-color="#D5D6D6"/>
<stop offset="0.7067" stop-color="#ECECED"/>
<stop offset="0.8634" stop-color="#FAFAFA"/>
<stop offset="1" stop-color="white"/>
</linearGradient>
<radialGradient id="paint38_radial_17_16432" cx="0" cy="0" r="1" gradientUnits="userSpaceOnUse" gradientTransform="translate(27.3642 36.2797) scale(20.9357 21.0717)">
<stop stop-color="#1C75BC"/>
<stop offset="1" stop-color="#2B3990"/>
</radialGradient>
<radialGradient id="paint39_radial_17_16432" cx="0" cy="0" r="1" gradientUnits="userSpaceOnUse" gradientTransform="translate(27.3642 36.2796) scale(20.9357 21.0717)">
<stop stop-color="#1C75BC"/>
<stop offset="1" stop-color="#2B3990"/>
</radialGradient>
<radialGradient id="paint40_radial_17_16432" cx="0" cy="0" r="1" gradientUnits="userSpaceOnUse" gradientTransform="translate(29.6168 20.8714) scale(8.92189 8.97982)">
<stop stop-color="white"/>
<stop offset="1" stop-color="#1C75BC"/>
</radialGradient>
<radialGradient id="paint41_radial_17_16432" cx="0" cy="0" r="1" gradientUnits="userSpaceOnUse" gradientTransform="translate(27.3642 45.6975) scale(17.3286 17.4411)">
<stop stop-color="#1C75BC"/>
<stop offset="1" stop-color="#2B3990"/>
</radialGradient>
<linearGradient id="paint42_linear_17_16432" x1="25.5386" y1="50.5123" x2="27.2318" y2="39.0425" gradientUnits="userSpaceOnUse">
<stop stop-color="#58595B"/>
<stop offset="0.00649029" stop-color="#5A5B5D"/>
<stop offset="0.1875" stop-color="#8C8D8E"/>
<stop offset="0.3665" stop-color="#B5B6B7"/>
<stop offset="0.5401" stop-color="#D5D6D6"/>
<stop offset="0.7067" stop-color="#ECECED"/>
<stop offset="0.8634" stop-color="#FAFAFA"/>
<stop offset="1" stop-color="white"/>
</linearGradient>
<linearGradient id="paint43_linear_17_16432" x1="29.0978" y1="23.6435" x2="30.0929" y2="16.9027" gradientUnits="userSpaceOnUse">
<stop stop-color="#58595B"/>
<stop offset="0.00649029" stop-color="#5A5B5D"/>
<stop offset="0.1875" stop-color="#8C8D8E"/>
<stop offset="0.3665" stop-color="#B5B6B7"/>
<stop offset="0.5401" stop-color="#D5D6D6"/>
<stop offset="0.7067" stop-color="#ECECED"/>
<stop offset="0.8634" stop-color="#FAFAFA"/>
<stop offset="1" stop-color="white"/>
</linearGradient>
<radialGradient id="paint44_radial_17_16432" cx="0" cy="0" r="1" gradientUnits="userSpaceOnUse" gradientTransform="translate(70.6499 24.7403) scale(16.1894 16.2945)">
<stop stop-color="#1C75BC"/>
<stop offset="1" stop-color="#2B3990"/>
</radialGradient>
<radialGradient id="paint45_radial_17_16432" cx="0" cy="0" r="1" gradientUnits="userSpaceOnUse" gradientTransform="translate(70.6498 24.7402) scale(16.1894 16.2945)">
<stop stop-color="#1C75BC"/>
<stop offset="1" stop-color="#2B3990"/>
</radialGradient>
<radialGradient id="paint46_radial_17_16432" cx="0" cy="0" r="1" gradientUnits="userSpaceOnUse" gradientTransform="translate(72.3917 12.8252) scale(6.89919 6.94399)">
<stop stop-color="white"/>
<stop offset="1" stop-color="#1C75BC"/>
</radialGradient>
<radialGradient id="paint47_radial_17_16432" cx="0" cy="0" r="1" gradientUnits="userSpaceOnUse" gradientTransform="translate(70.6499 32.0229) scale(13.4 13.487)">
<stop stop-color="#1C75BC"/>
<stop offset="1" stop-color="#2B3990"/>
</radialGradient>
<linearGradient id="paint48_linear_17_16432" x1="69.238" y1="35.7463" x2="70.5473" y2="26.8769" gradientUnits="userSpaceOnUse">
<stop stop-color="#58595B"/>
<stop offset="0.00649029" stop-color="#5A5B5D"/>
<stop offset="0.1875" stop-color="#8C8D8E"/>
<stop offset="0.3665" stop-color="#B5B6B7"/>
<stop offset="0.5401" stop-color="#D5D6D6"/>
<stop offset="0.7067" stop-color="#ECECED"/>
<stop offset="0.8634" stop-color="#FAFAFA"/>
<stop offset="1" stop-color="white"/>
</linearGradient>
<linearGradient id="paint49_linear_17_16432" x1="71.9906" y1="14.9688" x2="72.7601" y2="9.75628" gradientUnits="userSpaceOnUse">
<stop stop-color="#58595B"/>
<stop offset="0.00649029" stop-color="#5A5B5D"/>
<stop offset="0.1875" stop-color="#8C8D8E"/>
<stop offset="0.3665" stop-color="#B5B6B7"/>
<stop offset="0.5401" stop-color="#D5D6D6"/>
<stop offset="0.7067" stop-color="#ECECED"/>
<stop offset="0.8634" stop-color="#FAFAFA"/>
<stop offset="1" stop-color="white"/>
</linearGradient>
<radialGradient id="paint50_radial_17_16432" cx="0" cy="0" r="1" gradientUnits="userSpaceOnUse" gradientTransform="translate(60.7093 20.8805) scale(8.95001 9.00812)">
<stop stop-color="white"/>
<stop offset="1" stop-color="#1C75BC"/>
</radialGradient>
<radialGradient id="paint51_radial_17_16432" cx="0" cy="0" r="1" gradientUnits="userSpaceOnUse" gradientTransform="translate(58.4497 45.785) scale(17.3832 17.496)">
<stop stop-color="#1C75BC"/>
<stop offset="1" stop-color="#2B3990"/>
</radialGradient>
<linearGradient id="paint52_linear_17_16432" x1="56.6186" y1="50.6149" x2="58.3171" y2="39.109" gradientUnits="userSpaceOnUse">
<stop stop-color="#58595B"/>
<stop offset="0.00649029" stop-color="#5A5B5D"/>
<stop offset="0.1875" stop-color="#8C8D8E"/>
<stop offset="0.3665" stop-color="#B5B6B7"/>
<stop offset="0.5401" stop-color="#D5D6D6"/>
<stop offset="0.7067" stop-color="#ECECED"/>
<stop offset="0.8634" stop-color="#FAFAFA"/>
<stop offset="1" stop-color="white"/>
</linearGradient>
<linearGradient id="paint53_linear_17_16432" x1="60.1887" y1="23.6613" x2="61.1869" y2="16.8994" gradientUnits="userSpaceOnUse">
<stop stop-color="#58595B"/>
<stop offset="0.00649029" stop-color="#5A5B5D"/>
<stop offset="0.1875" stop-color="#8C8D8E"/>
<stop offset="0.3665" stop-color="#B5B6B7"/>
<stop offset="0.5401" stop-color="#D5D6D6"/>
<stop offset="0.7067" stop-color="#ECECED"/>
<stop offset="0.8634" stop-color="#FAFAFA"/>
<stop offset="1" stop-color="white"/>
</linearGradient>
<radialGradient id="paint54_radial_17_16432" cx="0" cy="0" r="1" gradientUnits="userSpaceOnUse" gradientTransform="translate(43.7616 28.4639) scale(13.1721 13.2577)">
<stop stop-color="#FFF200"/>
<stop offset="1" stop-color="#F7941D"/>
</radialGradient>
<radialGradient id="paint55_radial_17_16432" cx="0" cy="0" r="1" gradientUnits="userSpaceOnUse" gradientTransform="translate(39.6976 61.3209) scale(25.0267 25.1892)">
<stop stop-color="#F7941D"/>
<stop offset="1" stop-color="#ED1C24"/>
</radialGradient>
<linearGradient id="paint56_linear_17_16432" x1="38.7982" y1="73.6658" x2="41.1865" y2="57.4871" gradientUnits="userSpaceOnUse">
<stop stop-color="#58595B"/>
<stop offset="0.00649029" stop-color="#5A5B5D"/>
<stop offset="0.1875" stop-color="#8C8D8E"/>
<stop offset="0.3665" stop-color="#B5B6B7"/>
<stop offset="0.5401" stop-color="#D5D6D6"/>
<stop offset="0.7067" stop-color="#ECECED"/>
<stop offset="0.8634" stop-color="#FAFAFA"/>
<stop offset="1" stop-color="white"/>
</linearGradient>
<linearGradient id="paint57_linear_17_16432" x1="43.8183" y1="35.7654" x2="45.2219" y2="26.2573" gradientUnits="userSpaceOnUse">
<stop stop-color="#58595B"/>
<stop offset="0.00649029" stop-color="#5A5B5D"/>
<stop offset="0.1875" stop-color="#8C8D8E"/>
<stop offset="0.3665" stop-color="#B5B6B7"/>
<stop offset="0.5401" stop-color="#D5D6D6"/>
<stop offset="0.7067" stop-color="#ECECED"/>
<stop offset="0.8634" stop-color="#FAFAFA"/>
<stop offset="1" stop-color="white"/>
</linearGradient>
<clipPath id="clip0_17_16432">
<rect width="95.5862" height="88" fill="white" transform="translate(0 0.582031)"/>
</clipPath>
</defs>
</svg>
