<svg width="83" height="97" viewBox="0 0 83 97" fill="none" xmlns="http://www.w3.org/2000/svg">
<g id="Object">
<g id="Group">
<path id="Vector" d="M81.5499 40.2745C82.0498 39.7747 82.3347 39.0843 82.3347 38.3793V15.5943C82.3347 14.8893 82.0498 14.1989 81.5499 13.6991C81.05 13.1992 80.3613 12.9143 79.6547 12.9143H37.6032V3.23465C37.6032 2.22516 37.0317 1.29547 36.1313 0.8412C35.2309 0.386933 34.1449 0.478109 33.3325 1.07729L1.24069 24.7562C0.556843 25.2609 0.153046 26.0571 0.153046 26.9086C0.153046 27.7586 0.551955 28.558 1.23743 29.0644L14.6098 38.9931C14.0595 41.2205 13.7615 43.5472 13.7615 45.9423C13.7615 49.4006 14.3721 52.7188 15.489 55.7961H2.83306C2.08735 55.7961 1.35791 56.099 0.830377 56.6265C0.302841 57.154 0 57.8835 0 58.6308V81.4142C0 82.1631 0.301213 82.8909 0.830377 83.4201C1.35791 83.946 2.08735 84.2489 2.83306 84.2489H41.5483V93.7771C41.5483 94.8435 42.154 95.827 43.1049 96.3057C44.0558 96.7876 45.2053 96.6899 46.065 96.0565L78.1567 72.3777C78.8797 71.8436 79.3062 71.0018 79.3062 70.1015C79.3095 69.2011 78.8845 68.3577 78.1616 67.822L67.9561 60.2444C70.3625 56.0208 71.7465 51.1411 71.7465 45.9406C71.7465 44.2766 71.5984 42.6468 71.3264 41.0577H79.6547C80.3613 41.0593 81.05 40.7727 81.5499 40.2745ZM42.7516 71.8664C28.4576 71.8664 16.829 60.2362 16.829 45.9423C16.829 31.6434 28.4576 20.0165 42.7516 20.0165C57.0455 20.0165 68.6741 31.6434 68.6741 45.9423C68.6757 60.2362 57.0472 71.8664 42.7516 71.8664Z" fill="#313583"/>
<path id="Vector_2" d="M16.8306 45.9424C16.8306 60.2363 28.4591 71.8665 42.7531 71.8665C57.047 71.8665 68.6756 60.2363 68.6756 45.9424C68.6756 31.6436 57.047 20.0166 42.7531 20.0166C28.4591 20.0166 16.8306 31.6436 16.8306 45.9424ZM62.959 45.9424C62.959 56.949 54.0398 65.8748 43.0299 65.8748C32.0233 65.8748 23.1008 56.949 23.1008 45.9424C23.1008 34.9341 32.0249 26.01 43.0299 26.01C54.0381 26.01 62.959 34.9341 62.959 45.9424Z" fill="white"/>
<path id="Vector_3" d="M42.325 61.148H44.6077C45.2948 61.148 45.85 60.5928 45.85 59.9057V57.7858C47.6768 57.5139 49.2676 56.9407 50.6174 56.0566C52.7438 54.6499 53.8379 52.7156 53.8868 50.2407C53.9161 48.6988 53.4895 47.3881 52.6005 46.3119C51.1579 44.5909 48.9078 43.5146 45.85 43.0864V38.7896C46.3873 39.042 46.9083 39.3822 47.4066 39.8137C47.7127 40.0693 48.0692 40.1996 48.473 40.1996C48.7987 40.2012 49.2497 39.9717 49.2497 39.9717L49.2578 39.97L51.8141 38.3646C52.1625 38.1432 52.3416 37.8615 52.3481 37.5196C52.3514 37.2444 52.2391 37.0035 52.0144 36.7967C50.4204 34.9829 48.3623 33.8578 45.85 33.4198V31.0019C45.85 30.3148 45.2948 29.7563 44.6077 29.7563H42.325C41.6395 29.7563 41.0794 30.3148 41.0794 31.0019V33.3563C39.8989 33.5207 38.8325 33.8187 37.8832 34.2534C34.8125 35.6504 33.3096 37.7443 33.3617 40.5187C33.3845 41.8848 33.7965 43.0929 34.591 44.1447C35.9261 45.9325 38.0884 47.0543 41.0794 47.5151V52.8767C39.7882 52.4209 38.5638 51.5693 37.4143 50.3221C37.1636 49.9932 36.8249 49.8288 36.4048 49.8288C36.1769 49.8288 35.7226 50.0274 35.7226 50.0274L35.7145 50.0323L33.3894 51.3967C32.9905 51.6279 32.8 51.934 32.8033 52.3101C32.8098 52.556 32.8993 52.7758 33.0752 52.9744C33.6809 53.8195 34.495 54.6287 35.5126 55.4021C37.1587 56.6688 39.0181 57.4569 41.0794 57.7841V59.9024C41.0794 60.5912 41.6395 61.148 42.325 61.148ZM45.85 48.0931C47.0826 48.4806 47.7078 49.197 47.6996 50.2537C47.6882 51.2355 47.2421 51.9975 46.3531 52.5365C46.1968 52.6358 46.0242 52.7204 45.85 52.7986V48.0931ZM39.5749 40.5366C39.57 39.7681 40.0113 39.169 40.9052 38.744L41.0794 38.6756V42.484C40.0862 42.0997 39.5831 41.4517 39.5749 40.5366Z" fill="white"/>
<path id="Vector_4" d="M39.5747 40.5366C39.5829 41.4516 40.086 42.0996 41.0792 42.4839V38.6755L40.905 38.7439C40.0111 39.1689 39.5699 39.7681 39.5747 40.5366Z" fill="#F6EF43"/>
<path id="Vector_5" d="M45.8501 52.7985C46.0243 52.7204 46.1953 52.6357 46.3532 52.5364C47.2422 51.9974 47.69 51.2354 47.6997 50.2536C47.7079 49.1986 47.0826 48.4822 45.8501 48.093V52.7985Z" fill="#F6EF43"/>
<path id="Vector_6" d="M23.0991 45.9422C23.0991 56.9488 32.0233 65.8746 43.0283 65.8746C54.0381 65.8746 62.9574 56.9488 62.9574 45.9422C62.9574 34.9339 54.0381 26.0098 43.0283 26.0098C32.0233 26.0098 23.0991 34.9339 23.0991 45.9422ZM45.8499 31.0051V33.4229C48.3622 33.8593 50.4203 34.9844 52.0143 36.7998C52.239 37.0066 52.3513 37.246 52.3481 37.5227C52.3415 37.8647 52.1624 38.1463 51.814 38.3678L49.2577 39.9732L49.2496 39.9748C49.2496 39.9748 48.7986 40.2044 48.4729 40.2028C48.0692 40.2028 47.7126 40.0725 47.4065 39.8169C46.9083 39.3838 46.3872 39.0451 45.8499 38.7927V43.0896C48.9093 43.5178 51.1578 44.594 52.6004 46.315C53.4894 47.3913 53.916 48.702 53.8867 50.2439C53.8379 52.7171 52.7437 54.6514 50.6173 56.0598C49.2675 56.9439 47.6768 57.517 45.8499 57.7889V59.9088C45.8499 60.5959 45.2947 61.1512 44.6076 61.1512H42.3249C41.6394 61.1512 41.0793 60.5959 41.0793 59.9088V57.7905C39.018 57.4617 37.1586 56.6736 35.5125 55.4085C34.4949 54.6351 33.6808 53.8243 33.0751 52.9809C32.8992 52.7822 32.8097 52.564 32.8032 52.3166C32.7999 51.9404 32.9904 51.6343 33.3893 51.4031L35.7144 50.0387L35.7225 50.0338C35.7225 50.0338 36.1752 49.8352 36.4047 49.8352C36.8248 49.8352 37.1619 49.9996 37.4142 50.3285C38.5654 51.5757 39.7898 52.4273 41.0793 52.8832V47.5215C38.0883 47.0607 35.9261 45.9389 34.5909 44.1511C33.7964 43.0993 33.3844 41.8912 33.3616 40.5251C33.3112 37.7507 34.8124 35.6568 37.8832 34.2598C38.8324 33.8251 39.8989 33.5255 41.0793 33.3627V31.0083C41.0793 30.3212 41.6394 29.7628 42.3249 29.7628H44.6076C45.2947 29.7595 45.8499 30.318 45.8499 31.0051Z" fill="#F6EF43"/>
</g>
</g>
</svg>
